<?xml version="1.0" encoding="UTF-8" standalone="no"?>
<svg xmlns:rdf="http://www.w3.org/1999/02/22-rdf-syntax-ns#" xmlns="http://www.w3.org/2000/svg" xml:space="preserve" height="90.51" width="90.51" version="1.1" xmlns:cc="http://creativecommons.org/ns#" xmlns:dc="http://purl.org/dc/elements/1.1/" viewBox="0 0 90.510002 90.510002"><g><path d="m45.375 0.885c-24.403 0-44.255 19.851-44.255 44.255 0 24.402 19.852 44.255 44.255 44.255s44.255-19.853 44.255-44.255c0-24.404-19.852-44.255-44.255-44.255"/><path fill="#fff" d="m45.375 2.688c-23.406 0-42.451 19.042-42.451 42.45-0.0002 23.406 19.045 42.45 42.451 42.45s42.449-19.044 42.449-42.451c0-23.408-19.043-42.45-42.449-42.45z"/><path fill="#a60c31" d="m45.373 4.4927c-22.447 0-40.644 18.199-40.644 40.647-0.0005 22.447 18.197 40.644 40.644 40.644 22.446 0 40.647-18.197 40.647-40.644 0-22.448-18.201-40.647-40.647-40.647z"/><path fill="#fff" d="m45.375 18.591c-14.663 0-26.549 11.886-26.549 26.547 0 14.662 11.886 26.547 26.549 26.547 14.66 0 26.547-11.885 26.547-26.547 0-14.661-11.887-26.547-26.547-26.547z"/><path fill="#c8c8c8" d="m45.715 7.1484l-5.586 0.2969 0.078 1.6875h0.645l0.234 5.0762-0.629 0.055 0.082 1.769 5.758-0.289c0.71-0.034 1.012-0.839 1.006-1.537l-0.11-1.809c-0.19-0.581-0.703-0.961-1.339-1.08 0.692-0.126 1.137-0.643 1.253-1.3317 0.034-1.0225-0.172-2.9067-1.392-2.8379zm10.867 1.6543l-3.537 6.0153-0.604-0.222-0.621 1.685 2.717 1.004 1.012-1.887 1.408 0.52-0.508 2.074 2.655 0.979 0.632-1.711-0.566-0.209 1.111-6.883-3.699-1.3653zm-11.963 0.2227l0.076 1.6226-1.367 0.061-0.074-1.6211 1.365-0.0625zm-13.894 1.0356l-3.559 1.699 1.848 6.728-0.582 0.278 0.773 1.623 2.615-1.25-0.646-2.039 1.355-0.647 1.131 1.809 2.555-1.221-0.787-1.646-0.545 0.259-4.158-5.593zm27.185 0.834l0.065 0.023-0.672 3.482-1.084-0.398 1.691-3.107zm-28.258 1.341l2.032 2.912-1.041 0.497-1.051-3.379 0.06-0.03zm15.145 0.055l0.084 1.811-1.395 0.064-0.084-1.809 1.395-0.066zm24.289 2.738l-1.299 1.262 0.42 0.434-3.648 3.541-0.42-0.395-1.27 1.234 2.018 2.079 3.273-3.18c-0.294 1.296-0.599 2.64-0.894 3.935l3.875-1.015-3.348 3.25 2.01 2.07 1.308-1.271-0.429-0.442 3.607-3.506 0.406 0.377 1.297-1.261-1.945-2.002-4.131 1.097 1.16-4.156-1.99-2.051zm-51.666 4.385l-2.486 2.762 1.326 1.193 0.422-0.469 3.781 3.401-0.406 0.449 1.357 1.221 4.361-4.848-2.474-2.223-1.561 1.735 1.117 1.004-0.728 0.808-3.758-3.383 0.395-0.439-1.346-1.211zm-7.242 11.363l-1.3089 3.721 6.0699 3.443-0.212 0.604 1.695 0.598 0.961-2.733-1.903-0.982 0.499-1.418 2.078 0.476 0.939-2.67-1.721-0.605-0.199 0.568-6.898-1.002zm70.605 0.502l-6.91 0.979-0.201-0.61-1.707 0.563 0.906 2.75 2.108-0.383 0.468 1.426-1.937 0.894 0.888 2.688 1.733-0.572-0.192-0.573 6.079-3.418-1.235-3.744zm-69.82 1.793l3.494 0.619-0.383 1.086-3.133-1.642 0.022-0.063zm69.01 0.551l0.019 0.066-3.142 1.641-0.362-1.094 3.485-0.613zm-5.764 17.67l-1.576 5.137 1.734 0.531 0.147-0.484 4.939 1.515-0.148 0.485 1.746 0.535 1.609-5.246-2.853-0.877-0.53 1.72 1.108 0.342-0.338 1.106-1.785-0.547 0.463-1.506-1.553-0.475-0.488 1.496-1.575-0.484 0.338-1.105 0.912 0.277 0.495-1.611-2.645-0.809zm-58.535 0.027c-0.184-0.009-0.375 0.013-0.565 0.069l-5.2067 1.519c-0.9025 0.264-1.7286 0.938-1.5136 1.672l1.0468 3.678 3.1135-0.908-0.516-1.772-1.336 0.389-0.316-1.078 4.957-1.448 0.316 1.079-0.992 0.291 0.49 1.683 2.735-0.799-1.041-3.572c-0.138-0.469-0.62-0.774-1.172-0.803zm2.863 6.096l-1.58 0.941 0.236 0.448-4.416 2.629-0.283-0.42-1.545 0.918 1.305 2.195 3.068-1.826 0.592 0.994-2.353 1.4c-0.328 0.197-0.623 0.582-0.438 0.891l1.006 1.689 1.57-0.933-0.236-0.447 1.076-0.696c0.564-0.361 0.737-0.896 0.613-1.474 0.442 0.258 1.005 0.487 1.59 0.166l1.278-0.709c0.79-0.432 1.129-1.377 0.755-2.006l-2.238-3.76zm53.574 1.232c-0.337 0.005-0.642 0.121-0.804 0.383l-2.453 3.93 1.566 0.965 0.277-0.451 4.397 2.711-0.24 0.445 1.531 0.945 2.412-3.969c0.289-0.467 0.048-1.145-0.51-1.486l-5.174-3.191c-0.295-0.183-0.664-0.288-1.002-0.282zm-53.92 1.918l0.594 0.995-1.465 0.871-0.591-0.991 1.462-0.875zm54.198 0.241l4.386 2.703-0.595 0.967-4.385-2.702 0.594-0.968zm-49.385 3.414l-1.334 1.265 0.365 0.385-3.748 3.555-0.316-0.332-1.305 1.238 2.059 2.17 1.326-1.258-0.35-0.367 3.727-3.539 0.334 0.353 1.334-1.271-2.092-2.199zm44.57 0.189l-2.103 2.192 1.326 1.273 0.365-0.381 3.725 3.58-0.319 0.332 1.297 1.246 2.073-2.156-1.319-1.264-0.349 0.364-3.706-3.561 0.336-0.349-1.326-1.276zm-41.279 3.414l-0.971 1.563 0.43 0.265-2.729 4.387-0.425-0.232-0.95 1.529 2.063 1.283 2.447-3.935c-0.081 1.281-0.165 2.608-0.246 3.888l3.274-2.136-2.502 4.027 2.05 1.277 0.979-1.572-0.438-0.273 2.7-4.342 0.404 0.222 0.973-1.564-1.989-1.234-3.49 2.293 0.455-4.184-2.035-1.262zm37.853 0.108l-5.361 3.535 1.774 2.683 1.238-0.816-0.772-1.17 0.59-0.391 2.844 4.313-0.365 0.24 1.006 1.526 2.488-1.641-1.008-1.525-0.402 0.267-2.844-4.312 0.592-0.391 0.787 1.195 1.221-0.804-1.788-2.709zm-8.521 4.937l-2.361 0.574 1.039 4.264-2.934-3.83-2.361 0.578 0.437 1.789 0.512-0.129 1.225 5.02-0.514 0.127 0.434 1.771 2.382-0.58-1.068-4.369 2.949 3.881 1.875-0.43-1.65-6.762 0.463-0.144-0.428-1.76zm-19.35 0.266c-0.085-0.006-0.172-0.005-0.257 0.006-0.513 0.061-0.998 0.408-1.161 1.009l-0.539 2.016c-0.225 0.844 0.052 1.764 0.758 1.953l1.901 0.508-0.465 1.738-1.075-0.285 0.221-0.832-1.881-0.502-0.701 2.619 3.779 1.012c0.61 0.164 1.303-0.342 1.504-1.092l0.604-2.252c0.209-0.776-0.048-1.605-0.688-1.777l-1.988-0.535 0.434-1.619 1.119 0.302-0.201 0.75 1.718 0.459 0.666-2.502-3.496-0.935c-0.082-0.023-0.166-0.035-0.252-0.041zm7.11 1.324c-0.585-0.012-1.294 0.464-1.313 1.254l-0.146 6.281c-0.017 0.709 0.5 1.252 1.084 1.266l2.945 0.068c0.653 0.014 1.078-0.793 1.096-1.57l0.136-5.885c0.018-0.736-0.473-1.334-1.093-1.348l-2.709-0.066zm0.687 1.873l1.102 0.025-0.119 5.151-1.104-0.026 0.121-5.15z"/><path fill="#a60c31" d="m57.73 27.873c-1.661 1.271-3.331 2.56-4.726 2.768-1.275 0.306-9.061 0.918-8.514-2.645-0.869 0.07-1.358 1.091-1.353 1.975 0.282 3.847 5.281 3.082 8.326 3.459-3.143 3.932-5.903 8.005-8.397 12.222-1.978 0.379-2.238-2.073-1.902-2.748 0 0-1.304 0.365-1.809 1.793-0.611 1.502 0.081 4.041 2.209 4.182-2.106 3.705-4.632 9.776-9.798 8.562-1.732-0.356-3.752-3.285-2.705-5.025 0.641-0.891-0.311-1.518-1.401-0.195-2.681 2.959-0.095 8.868 5.524 8.513 6.041 0.133 10.116-7.376 12.316-11.836l5.729-0.9-0.366 4.674c-0.721 11.622 7.645 7.137 7.645 7.137 1.162-0.528 2.383-1.798 2.351-3.282-0.061-0.5-0.339-0.308-0.615-0.166-2.954 1.524-5.17 1.206-5.406-0.634-0.265-2.058-0.121-4.955-0.024-6.059 0.035-0.402 0.159-1.71 0.237-2.104 1.007-0.211 2.353-0.703 2.353 1.049 0.512-0.26 1.445-1.026 1.604-1.84 0.891-4.205-3.516-3.101-3.516-3.101 1.074-4.969 2.23-10.256 4.692-14.621l-2.454-1.178zm-3.525 7.018c-0.96 3.061-1.741 6.535-2.488 9.629l-4.334 0.527c2.16-3.456 3.341-6.653 6.822-10.156z"/></g></svg>
